<?xml version="1.0" standalone="no"?>
<!DOCTYPE svg PUBLIC "-//W3C//DTD SVG 20010904//EN"
 "http://www.w3.org/TR/2001/REC-SVG-20010904/DTD/svg10.dtd">
<svg version="1.0" xmlns="http://www.w3.org/2000/svg"
 width="260.000000pt" height="260.000000pt" viewBox="0 0 260.000000 260.000000"
 preserveAspectRatio="xMidYMid meet">
<metadata>
Created by potrace 1.14, written by Peter Selinger 2001-2017
</metadata>
<g transform="translate(0.000000,260.000000) scale(0.100000,-0.100000)"
fill="#000000" stroke="none">
<path d="M822 2042 c-10 -7 -12 -188 -10 -873 l3 -864 288 -2 c249 -1 297 1
350 17 164 46 272 149 319 305 21 68 22 86 22 535 -1 531 -1 535 -48 634 -54
113 -160 198 -294 235 -64 17 -105 20 -345 20 -149 1 -278 -3 -285 -7z m498
-298 c46 -10 96 -61 110 -114 18 -64 18 -837 0 -900 -13 -48 -77 -119 -108
-121 -9 0 -48 -2 -87 -2 l-70 -2 -1 565 c-1 311 1 568 3 573 5 9 108 9 153 1z"/>
</g>
</svg>
