<?xml version="1.0" standalone="no"?>
<!DOCTYPE svg PUBLIC "-//W3C//DTD SVG 20010904//EN"
 "http://www.w3.org/TR/2001/REC-SVG-20010904/DTD/svg10.dtd">
<svg version="1.0" xmlns="http://www.w3.org/2000/svg"
 width="500.000000pt" height="500.000000pt" viewBox="0 0 500.000000 500.000000"
 preserveAspectRatio="xMidYMid meet">
<metadata>
Created by potrace 1.14, written by Peter Selinger 2001-2017
</metadata>
<g transform="translate(0.000000,500.000000) scale(0.100000,-0.100000)"
fill="#000000" stroke="none">
<path d="M39 4523 c-6 -85 -3 -462 3 -475 5 -10 5 -18 1 -18 -10 0 -10 -3441
0 -3457 4 -6 3 -14 -3 -18 -5 -3 -10 -14 -10 -24 0 -13 10 -20 37 -24 20 -4
40 -2 43 2 3 5 30 8 60 6 103 -7 290 -10 290 -5 0 3 171 6 380 6 209 0 380 -3
380 -6 0 -11 119 -8 123 3 3 8 28 12 65 11 42 -1 62 3 66 11 3 8 13 11 25 8
12 -3 21 -1 21 4 0 6 11 8 25 5 17 -3 25 0 25 9 0 11 2 11 10 -1 9 -13 12 -13
24 3 8 10 20 15 30 11 10 -4 22 0 29 9 7 8 33 18 60 22 26 3 47 10 47 15 0 5
17 14 38 20 20 6 46 15 57 20 11 5 32 11 46 14 15 3 29 14 32 25 3 11 17 22
35 26 17 3 36 13 43 21 6 8 17 14 24 14 7 0 18 6 24 14 7 8 24 17 38 21 14 3
35 17 45 31 11 13 26 24 34 24 8 0 34 18 56 40 23 22 50 40 60 40 10 0 18 7
18 15 0 8 28 43 62 77 l61 62 16 -23 c9 -13 25 -32 36 -42 73 -68 99 -89 110
-89 8 0 22 -11 33 -25 11 -14 25 -25 31 -25 6 0 17 -11 23 -25 6 -14 20 -25
30 -25 10 0 21 -6 24 -14 3 -8 17 -16 32 -19 28 -6 62 -28 90 -59 9 -10 22
-18 28 -18 18 0 104 -51 104 -61 0 -5 10 -9 23 -9 13 0 47 -11 75 -25 29 -14
56 -25 62 -25 12 0 52 -22 60 -32 3 -3 25 -9 50 -13 25 -4 59 -13 75 -20 17
-7 37 -13 45 -13 32 0 111 -20 125 -32 9 -7 25 -10 41 -6 14 4 31 2 38 -3 6
-5 39 -10 71 -10 33 0 88 -3 123 -7 46 -4 74 -2 103 10 33 14 40 14 45 2 5
-14 39 -11 60 5 5 5 20 6 32 2 14 -3 30 1 42 12 12 10 20 13 20 7 0 -7 9 -12
20 -12 11 0 20 5 20 11 0 7 10 9 25 5 15 -4 37 1 61 15 21 11 56 23 78 25 22
3 43 9 46 13 8 13 48 31 68 31 10 0 29 9 42 20 13 11 47 31 77 45 29 14 53 29
53 33 0 4 18 15 41 25 22 10 54 31 72 48 61 58 67 63 84 65 10 2 19 9 22 16 6
19 82 88 98 88 7 0 13 5 13 10 0 6 7 10 15 10 17 0 22 65 6 75 -5 3 -32 49
-58 103 -95 187 -120 215 -158 172 -8 -8 -29 -31 -47 -51 -18 -20 -43 -48 -54
-63 -19 -24 -34 -32 -66 -35 -4 -1 -10 -10 -13 -21 -4 -11 -23 -27 -43 -36
-20 -8 -47 -26 -59 -40 -15 -17 -23 -21 -26 -12 -4 9 -8 10 -14 2 -15 -21
-113 -73 -127 -68 -7 3 -20 -2 -29 -10 -9 -10 -33 -16 -60 -16 -25 0 -49 -6
-56 -14 -6 -7 -22 -11 -36 -8 -14 2 -25 0 -25 -7 0 -6 -11 -8 -30 -5 -23 5
-30 3 -30 -9 0 -12 -8 -14 -40 -10 -25 4 -46 1 -55 -7 -21 -17 -179 -17 -200
0 -10 8 -29 10 -55 6 -32 -5 -40 -3 -40 9 0 17 -45 21 -55 5 -4 -6 -12 -4 -22
6 -10 9 -25 13 -38 10 -12 -3 -25 -2 -29 1 -4 4 -25 9 -47 10 -56 4 -128 34
-270 113 -30 16 -63 34 -74 39 -11 5 -40 27 -64 50 -24 23 -50 41 -57 41 -6 0
-19 11 -28 25 -9 14 -21 25 -27 25 -13 0 -79 53 -79 63 0 5 -9 20 -20 34 -11
14 -20 22 -20 17 0 -4 -13 5 -30 21 -36 34 -36 38 -10 63 11 11 22 29 25 41 2
12 11 28 19 37 9 8 16 21 16 28 0 6 22 57 50 113 27 56 50 106 50 112 0 6 5
11 10 11 6 0 10 10 10 23 0 38 12 67 26 67 16 0 19 26 5 35 -6 3 -4 22 5 47 7
22 14 51 14 64 0 14 8 25 20 29 19 6 29 35 12 35 -13 0 -6 74 7 78 13 4 15 48
2 57 -11 6 6 65 19 65 5 0 8 18 8 40 0 22 -4 40 -8 40 -3 0 -7 79 -6 175 0 96
3 175 8 175 14 0 9 35 -12 75 -13 26 -17 42 -10 49 15 15 12 53 -5 60 -12 4
-13 10 -3 32 10 22 9 27 -4 35 -10 5 -14 17 -11 29 3 11 1 26 -4 33 -6 6 -23
62 -37 122 -15 61 -45 149 -67 198 -21 48 -39 91 -39 96 0 5 -3 11 -7 13 -5 2
-32 53 -62 113 -30 61 -59 113 -64 117 -15 9 12 40 29 34 7 -3 16 4 19 15 4
10 10 19 15 19 4 0 22 13 39 29 18 17 34 30 36 30 3 1 9 1 14 1 5 0 11 9 14
19 3 14 11 18 26 14 15 -4 21 -1 21 11 0 9 4 16 10 16 5 0 25 14 44 31 33 28
50 36 84 38 6 1 12 10 12 21 0 14 9 21 36 26 20 4 46 17 59 30 13 13 32 24 43
24 10 0 23 5 30 12 6 6 27 11 47 10 23 -1 35 3 35 12 0 16 72 38 122 38 29 -1
38 3 38 16 0 12 3 13 12 4 17 -17 39 -15 54 6 7 9 14 12 14 6 0 -13 47 -7 56
7 7 12 44 11 44 -1 0 -14 58 -12 62 2 8 24 277 10 308 -16 18 -16 60 -27 60
-16 0 13 41 -1 47 -16 6 -16 33 -19 33 -4 0 21 225 -80 248 -112 7 -10 19 -18
25 -18 11 0 50 -33 82 -70 6 -6 40 -40 77 -75 38 -34 68 -65 68 -69 0 -3 12
-17 26 -31 32 -32 64 -29 82 8 7 15 17 27 21 27 5 0 12 16 15 35 4 19 10 35
15 35 4 0 21 26 37 57 16 32 37 66 47 77 9 11 17 25 17 30 0 6 9 22 20 36 11
14 20 41 20 62 0 33 -4 39 -27 44 -28 7 -68 47 -78 77 -4 9 -12 17 -20 17 -7
0 -21 7 -30 16 -9 9 -18 14 -21 11 -3 -3 -13 2 -23 11 -40 39 -86 72 -100 72
-9 0 -29 9 -46 20 -16 11 -50 30 -75 42 -25 12 -58 30 -74 41 -15 11 -40 21
-53 23 -34 3 -83 24 -83 35 0 5 -17 9 -38 9 -21 0 -43 5 -48 10 -6 6 -27 11
-48 12 -20 1 -39 5 -42 9 -8 13 -674 11 -690 -2 -10 -8 -14 -8 -14 -1 0 13
-31 4 -42 -12 -5 -7 -8 -7 -8 2 0 10 -4 10 -22 0 -13 -6 -34 -11 -47 -9 -13 1
-21 -2 -17 -7 3 -5 -5 -7 -19 -4 -15 2 -25 0 -25 -7 0 -6 -8 -11 -18 -11 -10
0 -22 -3 -26 -7 -3 -4 -17 -8 -29 -10 -12 -2 -23 -8 -25 -13 -2 -6 -14 -10
-27 -10 -13 0 -27 -4 -30 -10 -3 -5 -17 -10 -31 -10 -13 0 -24 -4 -24 -10 0
-5 -8 -10 -19 -10 -10 0 -24 -6 -30 -14 -7 -8 -24 -17 -39 -21 -15 -3 -57 -26
-94 -51 -37 -25 -82 -51 -100 -60 -57 -25 -102 -54 -122 -77 -10 -12 -22 -23
-27 -23 -5 -1 -13 -2 -18 -3 -5 0 -13 -10 -16 -21 -3 -11 -13 -20 -21 -20 -8
0 -17 -6 -20 -14 -3 -7 -21 -22 -40 -32 -19 -10 -34 -24 -34 -31 0 -7 -8 -17
-19 -22 -14 -8 -24 -4 -49 22 -65 66 -97 94 -114 100 -10 4 -18 13 -18 21 0 8
-16 20 -35 26 -19 6 -35 17 -35 24 0 7 -16 20 -36 29 -19 10 -33 21 -30 26 3
5 -4 11 -17 15 -12 3 -32 15 -45 26 -12 12 -26 19 -31 16 -5 -3 -19 3 -32 13
-13 10 -33 21 -45 25 -11 3 -30 15 -42 27 -13 11 -33 21 -45 23 -12 1 -40 10
-62 20 -59 27 -172 66 -190 66 -8 0 -15 4 -15 9 0 5 -16 9 -36 9 -20 0 -40 6
-44 12 -4 7 -17 10 -29 7 -12 -3 -23 -1 -26 4 -3 5 -323 9 -730 9 -685 0 -725
-1 -726 -17z m661 -365 c0 -9 2 -10 8 -2 9 14 341 16 359 2 7 -5 14 -5 17 0
10 16 199 4 212 -13 13 -17 35 -20 49 -6 10 10 137 -10 185 -29 14 -5 37 -11
51 -14 14 -2 43 -13 65 -25 21 -12 47 -21 56 -21 10 0 18 -4 18 -9 0 -5 10
-11 23 -15 12 -3 50 -23 84 -46 34 -22 64 -40 67 -40 3 0 42 -36 87 -80 45
-44 85 -80 88 -80 3 0 17 -17 31 -38 14 -20 33 -43 43 -50 17 -13 17 -14 -1
-31 -23 -19 -65 -92 -117 -201 -20 -41 -41 -84 -47 -94 -6 -11 -14 -31 -18
-45 -5 -14 -20 -57 -34 -96 -31 -82 -69 -222 -68 -248 0 -10 -6 -21 -14 -24
-11 -4 -13 -14 -9 -34 5 -22 3 -29 -9 -29 -19 0 -22 -36 -3 -43 9 -3 9 -7 0
-18 -7 -9 -10 -34 -8 -62 2 -25 1 -49 -3 -51 -4 -2 -6 -85 -5 -183 2 -98 3
-200 4 -228 0 -27 6 -53 12 -57 9 -6 9 -12 0 -28 -17 -26 -16 -40 2 -40 8 0
15 -3 15 -7 5 -68 12 -119 19 -127 4 -6 13 -38 20 -71 20 -95 51 -195 82 -259
16 -32 29 -63 29 -70 0 -6 9 -22 20 -36 11 -14 20 -31 20 -38 0 -7 16 -37 35
-67 19 -30 32 -55 29 -55 -3 0 4 -13 16 -30 25 -35 34 -70 17 -70 -7 0 -21
-13 -32 -29 -10 -16 -22 -28 -26 -25 -4 2 -10 -5 -14 -16 -4 -11 -10 -18 -14
-15 -4 2 -17 -3 -27 -13 -36 -32 -91 -77 -119 -97 -16 -11 -35 -26 -42 -34
-21 -20 -84 -51 -105 -51 -10 0 -27 -9 -38 -20 -11 -11 -31 -20 -44 -20 -13 0
-27 -7 -30 -16 -3 -8 -11 -12 -16 -9 -6 4 -22 -1 -36 -10 -15 -10 -56 -19
-100 -22 -40 -3 -71 -9 -69 -13 3 -4 -2 -13 -9 -19 -10 -8 -16 -9 -21 -1 -9
14 -42 13 -47 -2 -3 -8 -20 -11 -45 -10 -23 2 -44 -1 -48 -7 -8 -14 -45 -14
-45 -1 0 6 -11 10 -25 10 -14 0 -25 -4 -25 -10 0 -5 -16 -10 -35 -10 -19 0
-35 4 -35 9 0 6 -122 9 -307 8 l-308 -2 2 249 c2 178 0 252 -8 257 -15 9 -14
122 0 127 14 5 15 42 1 42 -6 0 -10 28 -10 65 0 36 4 65 8 65 5 0 9 536 10
1191 2 1047 0 1194 -13 1220 l-16 29 131 0 c97 0 130 -3 130 -12z m1779 -930
c23 -57 47 -111 52 -120 5 -10 9 -29 9 -43 0 -14 4 -33 10 -43 16 -30 40 -157
30 -160 -16 -6 -11 -42 5 -42 11 0 13 -8 8 -31 -4 -24 -2 -34 11 -41 15 -8 15
-11 0 -25 -15 -16 -12 -61 5 -73 14 -9 21 -110 8 -111 -8 0 -9 -2 -1 -5 16 -7
7 -122 -12 -148 -19 -27 -18 -63 2 -74 14 -8 14 -13 4 -31 -6 -13 -9 -33 -6
-46 3 -13 2 -27 -4 -30 -5 -3 -10 -17 -10 -30 0 -27 -23 -123 -52 -212 -11
-34 -17 -67 -13 -73 3 -5 2 -10 -2 -10 -9 0 -87 -157 -88 -174 0 -5 -5 -11
-10 -13 -6 -2 -19 20 -30 48 -11 28 -26 55 -32 61 -7 6 -13 20 -13 32 0 12 -4
26 -8 31 -9 10 -51 137 -72 215 -7 25 -15 52 -20 60 -4 8 -2 23 3 32 8 13 7
21 -5 35 -19 22 -30 97 -15 112 7 7 5 21 -9 46 -15 29 -17 39 -6 55 15 24 16
116 1 125 -15 10 -9 95 9 127 13 21 13 30 3 42 -10 11 -10 20 -1 36 7 12 10
30 7 41 -3 10 1 26 8 36 8 10 11 30 8 46 -4 20 -2 27 11 27 19 0 22 26 4 33
-10 3 -10 9 0 26 6 11 12 28 12 36 0 28 32 114 46 126 8 6 14 19 14 27 0 21
83 191 90 187 4 -2 26 -50 49 -107z"/>
</g>
</svg>
